<svg width="239" height="32" viewBox="0 0 239 32" fill="none" xmlns="http://www.w3.org/2000/svg">
<path d="M21.7467 14L16.6267 24.8C15.8801 26.24 14.9467 26.96 13.8267 26.96C12.7334 26.96 11.8134 26.2 11.0667 24.68L5.86672 14V31H0.306719V2.52H5.78672L13.8267 18.96L21.8267 2.52H27.3067V31H21.7467V14ZM48.9486 31H45.4686L43.8686 28.24L38.3086 31.24C35.2153 31.24 33.1353 30.12 32.0686 27.88C31.5353 26.7867 31.1619 25.6133 30.9486 24.36C30.7619 23.08 30.6686 21.76 30.6686 20.4C30.6686 19.0133 30.6819 18 30.7086 17.36C30.7353 16.6933 30.8019 15.9333 30.9086 15.08C31.0153 14.2 31.1619 13.4667 31.3486 12.88C31.5619 12.2933 31.8553 11.6933 32.2286 11.08C32.6019 10.44 33.0553 9.93333 33.5886 9.56C34.7886 8.73333 36.3486 8.32 38.2686 8.32H43.7486L48.9486 8V31ZM43.7486 23.72V13H39.7886C38.3219 13 37.2953 13.56 36.7086 14.68C36.1486 15.8 35.8686 17.48 35.8686 19.72C35.8686 21.9333 36.1353 23.4933 36.6686 24.4C37.2286 25.3067 38.2686 25.76 39.7886 25.76L43.7486 23.72ZM70.7758 24.68V25.28C70.6158 27.28 69.7624 28.7867 68.2158 29.8C66.6958 30.8133 64.7891 31.32 62.4958 31.32C59.1091 31.32 56.7358 30.7067 55.3758 29.48C54.1224 28.36 53.4958 26.7067 53.4958 24.52V24.04H58.2158C58.2158 25.2667 58.5358 26.1067 59.1758 26.56C59.8158 27.0133 60.9224 27.24 62.4958 27.24C64.6291 27.24 65.6958 26.4667 65.6958 24.92C65.6958 23.64 65.3224 22.7867 64.5758 22.36C64.2291 22.1467 63.7891 21.9867 63.2558 21.88L59.2158 21.2C55.6958 20.64 53.9358 18.44 53.9358 14.6C53.9358 12.4667 54.7091 10.8133 56.2558 9.64C57.8291 8.44 59.8158 7.84 62.2158 7.84C67.6824 7.84 70.4158 10.2 70.4158 14.92V15.44H65.8958C65.8424 14.1867 65.5091 13.3333 64.8958 12.88C64.2824 12.4267 63.4158 12.2 62.2958 12.2C61.2024 12.2 60.3758 12.4267 59.8158 12.88C59.2558 13.3067 58.9758 13.7867 58.9758 14.32C58.9758 15.84 59.5891 16.7067 60.8158 16.92L65.6558 17.8C69.0691 18.44 70.7758 20.7333 70.7758 24.68ZM105.075 31H99.8748V16.8C99.8748 15.3867 99.7015 14.4 99.3548 13.84C99.0348 13.28 98.4615 13 97.6348 13L92.9548 14.96V31H87.7548V16.8C87.7548 14.2667 86.8748 13 85.1148 13L80.8348 14.96V31H75.6348V8.16H79.5148L80.7148 10.88L86.7148 7.92C88.7948 7.92 90.3682 8.93333 91.4348 10.96L98.8748 7.92C100.955 7.92 102.502 8.62667 103.515 10.04C104.555 11.4267 105.075 13.3067 105.075 15.68V31ZM126.894 31H123.414L121.814 28.24L116.254 31.24C113.161 31.24 111.081 30.12 110.014 27.88C109.481 26.7867 109.107 25.6133 108.894 24.36C108.707 23.08 108.614 21.76 108.614 20.4C108.614 19.0133 108.627 18 108.654 17.36C108.681 16.6933 108.747 15.9333 108.854 15.08C108.961 14.2 109.107 13.4667 109.294 12.88C109.507 12.2933 109.801 11.6933 110.174 11.08C110.547 10.44 111.001 9.93333 111.534 9.56C112.734 8.73333 114.294 8.32 116.214 8.32H121.694L126.894 8V31ZM121.694 23.72V13H117.734C116.267 13 115.241 13.56 114.654 14.68C114.094 15.8 113.814 17.48 113.814 19.72C113.814 21.9333 114.081 23.4933 114.614 24.4C115.174 25.3067 116.214 25.76 117.734 25.76L121.694 23.72ZM148.721 24.68V25.28C148.561 27.28 147.708 28.7867 146.161 29.8C144.641 30.8133 142.734 31.32 140.441 31.32C137.054 31.32 134.681 30.7067 133.321 29.48C132.068 28.36 131.441 26.7067 131.441 24.52V24.04H136.161C136.161 25.2667 136.481 26.1067 137.121 26.56C137.761 27.0133 138.868 27.24 140.441 27.24C142.574 27.24 143.641 26.4667 143.641 24.92C143.641 23.64 143.268 22.7867 142.521 22.36C142.174 22.1467 141.734 21.9867 141.201 21.88L137.161 21.2C133.641 20.64 131.881 18.44 131.881 14.6C131.881 12.4667 132.654 10.8133 134.201 9.64C135.774 8.44 137.761 7.84 140.161 7.84C145.628 7.84 148.361 10.2 148.361 14.92V15.44H143.841C143.788 14.1867 143.454 13.3333 142.841 12.88C142.228 12.4267 141.361 12.2 140.241 12.2C139.148 12.2 138.321 12.4267 137.761 12.88C137.201 13.3067 136.921 13.7867 136.921 14.32C136.921 15.84 137.534 16.7067 138.761 16.92L143.601 17.8C147.014 18.44 148.721 20.7333 148.721 24.68ZM172.74 7.48H162.7C161.527 7.48 160.7 7.70667 160.22 8.16C159.767 8.61333 159.54 9.4 159.54 10.52V14.48H169.98L169.58 19.44H159.54V31H153.98V8.32C153.98 6.21333 154.433 4.72 155.34 3.84C156.273 2.96 157.86 2.52 160.1 2.52H172.74V7.48ZM190.034 20.68V18.6C190.034 16.6267 189.741 15.12 189.154 14.08C188.594 13.04 187.407 12.52 185.594 12.52C182.661 12.52 181.194 14.4933 181.194 18.44V20.52C181.194 24.76 182.661 26.88 185.594 26.88C187.487 26.88 188.727 26.1733 189.314 24.76C189.794 23.64 190.034 22.28 190.034 20.68ZM195.234 19.48C195.234 24.4133 194.301 27.72 192.434 29.4C190.861 30.84 188.581 31.56 185.594 31.56C181.781 31.56 179.207 30.44 177.874 28.2C176.621 26.1467 175.994 23.24 175.994 19.48C175.994 15.96 176.621 13.2 177.874 11.2C179.261 8.96 181.781 7.84 185.434 7.84C189.114 7.84 191.661 8.82667 193.074 10.8C194.514 12.7467 195.234 15.64 195.234 19.48ZM212.253 20.68V18.6C212.253 16.6267 211.959 15.12 211.373 14.08C210.813 13.04 209.626 12.52 207.813 12.52C204.879 12.52 203.413 14.4933 203.413 18.44V20.52C203.413 24.76 204.879 26.88 207.813 26.88C209.706 26.88 210.946 26.1733 211.533 24.76C212.013 23.64 212.253 22.28 212.253 20.68ZM217.453 19.48C217.453 24.4133 216.519 27.72 214.653 29.4C213.079 30.84 210.799 31.56 207.813 31.56C203.999 31.56 201.426 30.44 200.093 28.2C198.839 26.1467 198.213 23.24 198.213 19.48C198.213 15.96 198.839 13.2 200.093 11.2C201.479 8.96 203.999 7.84 207.653 7.84C211.333 7.84 213.879 8.82667 215.293 10.8C216.733 12.7467 217.453 15.64 217.453 19.48ZM238.711 31H235.231L233.631 28.24L228.071 31.24C224.978 31.24 222.898 30.12 221.831 27.88C221.298 26.7867 220.925 25.6133 220.711 24.36C220.525 23.08 220.431 21.76 220.431 20.4C220.431 19.0133 220.445 18 220.471 17.36C220.498 16.6933 220.565 15.9333 220.671 15.08C220.778 14.2 220.925 13.4667 221.111 12.88C221.325 12.2933 221.618 11.6933 221.991 11.08C222.365 10.44 222.818 9.93333 223.351 9.56C224.551 8.73333 226.111 8.32 228.031 8.32H233.511V0.919999H238.711V31ZM233.511 23.72V13H229.551C228.085 13 227.058 13.56 226.471 14.68C225.911 15.8 225.631 17.48 225.631 19.72C225.631 21.9333 225.898 23.4933 226.431 24.4C226.991 25.3067 228.031 25.76 229.551 25.76L233.511 23.72Z" fill="url(#paint0_linear_169_18544)"/>
<defs>
<linearGradient id="paint0_linear_169_18544" x1="-3" y1="-13.3158" x2="190.837" y2="122.941" gradientUnits="userSpaceOnUse">
<stop stop-color="#53E88B"/>
<stop offset="1" stop-color="#15BE77"/>
</linearGradient>
</defs>
</svg>
