<svg width="83" height="32" viewBox="0 0 83 32" fill="none" xmlns="http://www.w3.org/2000/svg">
<g clip-path="url(#clip0_169_25906)">
<path d="M21.2205 2.78801C21.3221 5.30949 23.3121 14.9316 23.3121 14.9316C24.0434 16.8804 24.673 14.9316 24.673 14.9316C27.0805 7.02674 22.1605 2.44578 22.1605 2.44578C20.9046 1.64216 21.2205 2.78801 21.2205 2.78801ZM49.7872 1.41421C49.7872 1.41421 52.1958 3.24696 49.7872 3.59041C49.7872 3.59041 40.7873 4.73565 34.0905 11.6114C34.0905 11.6114 24.0434 21.2316 20.2772 31.7722C20.2772 31.7722 19.0212 31.7722 19.4415 29.7109C19.8596 27.649 22.3699 18.5977 33.5658 7.48691C33.5658 7.48691 44.3475 -3.28286 49.7872 1.41421Z" fill="#FF4600"/>
<path d="M4.00087 16.6657C4.39842 16.7575 4.75544 16.8025 5.27959 16.8025C7.33232 16.8025 8.71543 15.357 8.71543 13.5212C8.71543 11.8696 7.64714 11.2738 6.26515 11.2738C5.65604 11.2738 5.19519 11.32 4.90203 11.4106L4.00087 16.6657ZM2.84818 9.50674C3.7077 9.27636 4.98642 9.13959 6.24349 9.13959C7.56441 9.13959 8.94752 9.43684 9.86922 10.2411C10.6865 10.9292 11.1685 11.937 11.1685 13.3157C11.1685 15.1503 10.3717 16.6432 9.36562 17.5143C8.23459 18.5009 6.61939 18.9829 4.94311 18.9829C4.43951 18.9829 4.00087 18.913 3.6233 18.8681L2.5961 24.7195H0.208008L2.84818 9.50674Z" fill="black"/>
<path d="M17.6424 15.471C17.3914 15.4011 17.0777 15.3568 16.6374 15.3568C14.3947 15.3568 12.6341 18.1342 12.6341 20.6812C12.6341 21.8495 13.0322 22.8142 14.1016 22.8142C15.2531 22.8142 16.6374 21.255 17.1193 18.4089L17.6424 15.471ZM16.6579 24.7193C16.6579 24.0524 16.7412 23.1589 16.8261 22.2167H16.784C15.7784 24.2603 14.4153 24.9709 13.116 24.9709C11.2932 24.9709 10.0972 23.4105 10.0972 21.1626C10.0972 17.3536 12.5286 13.2918 17.2864 13.2918C18.3969 13.2918 19.5918 13.521 20.3886 13.7963L19.3197 19.6247C19.0255 21.2763 18.8583 23.388 18.9005 24.7193H16.6579Z" fill="black"/>
<path d="M34.2597 20.2904C34.2597 21.8259 34.9932 22.9073 36.2508 22.9073C38.0743 22.9073 39.2902 20.1524 39.2902 17.927C39.2902 16.7787 38.8072 15.3563 37.3413 15.3563C35.3919 15.3563 34.2597 18.2024 34.2597 20.2904ZM41.8049 17.9051C41.8049 21.7128 39.3941 24.9705 35.916 24.9705C33.3369 24.9705 31.7456 23.0204 31.7456 20.3579C31.7456 16.5732 34.1554 13.2919 37.6345 13.2919C40.3796 13.2919 41.8049 15.4487 41.8049 17.9051Z" fill="black"/>
<path d="M42.2637 24.7192L43.5846 17.0089C43.8356 15.6777 43.9821 14.5075 44.1082 13.5446H46.2892L46.0582 15.5409H46.0993C47.0415 14.0486 48.3419 13.2917 49.7672 13.2917C51.2336 13.2917 52.3658 14.2565 52.3658 16.367C52.3658 16.8709 52.2836 17.6508 52.1781 18.2022L51.0654 24.7192H48.6134L49.7023 18.4089C49.7672 17.9961 49.8294 17.5141 49.8294 17.0776C49.8294 16.1366 49.5151 15.471 48.5512 15.471C47.4408 15.471 46.0149 16.939 45.5751 19.5565L44.6951 24.7192H42.2637Z" fill="black"/>
<path d="M58.8602 15.2881C57.3294 15.2881 56.3244 16.7792 56.0312 18.1342C58.5454 18.1566 60.1606 17.7895 60.1606 16.4363C60.1606 15.7251 59.6364 15.2881 58.8602 15.2881ZM61.1866 24.0762C60.18 24.6494 58.8191 24.9709 57.5815 24.9709C54.7547 24.9709 53.3916 23.0677 53.3916 20.3365C53.3916 16.9634 55.6537 13.2924 59.175 13.2924C61.1866 13.2924 62.4654 14.5538 62.4654 16.4363C62.4654 19.3037 59.7208 20.221 55.7808 20.1298C55.7381 20.5195 55.8219 21.2763 56.0529 21.7127C56.4515 22.4707 57.1828 22.8604 58.1484 22.8604C59.3021 22.8604 60.2227 22.5388 60.9584 22.1261L61.1866 24.0762Z" fill="black"/>
<path d="M68.3529 15.2881C66.8237 15.2881 65.8171 16.7792 65.5239 18.1342C68.038 18.1566 69.6532 17.7895 69.6532 16.4363C69.6532 15.7251 69.1291 15.2881 68.3529 15.2881ZM70.6793 24.0762C69.6743 24.6494 68.3118 24.9709 67.0764 24.9709C64.2474 24.9709 62.8843 23.0677 62.8843 20.3365C62.8843 16.9634 65.1463 13.2924 68.6677 13.2924C70.6793 13.2924 71.9603 14.5538 71.9603 16.4363C71.9603 19.3037 69.2135 20.221 65.2735 20.1298C65.2302 20.5195 65.3146 21.2763 65.5456 21.7127C65.9442 22.4707 66.6771 22.8604 67.641 22.8604C68.7948 22.8604 69.7154 22.5388 70.4511 22.1261L70.6793 24.0762Z" fill="black"/>
<path d="M72.105 24.7192L73.2993 17.835C73.5714 16.2521 73.718 14.5312 73.8212 13.5446H75.9389C75.8762 14.3014 75.814 15.0813 75.7085 15.8856H75.7707C76.4653 14.3932 77.5736 13.2917 78.9578 13.2917C79.1477 13.2917 79.3353 13.3155 79.5036 13.3155L79.0205 15.9312C78.895 15.9074 78.7274 15.9074 78.5591 15.9074C76.8184 15.9074 75.7085 17.835 75.3115 20.2209L74.5353 24.7192H72.105Z" fill="black"/>
<path d="M81.3575 14.5668H81.5363C81.7195 14.5668 81.8406 14.4549 81.8406 14.286C81.8406 14.0957 81.7134 14.0124 81.5302 14.0124C81.4458 14.0124 81.3858 14.0191 81.3575 14.0264V14.5668ZM81.1826 13.8927C81.2715 13.875 81.3986 13.8623 81.5169 13.8623C81.7023 13.8623 81.8256 13.9036 81.9072 13.9838C81.9744 14.0489 82.0133 14.1504 82.0133 14.2671C82.0133 14.4592 81.9028 14.5893 81.7606 14.641V14.6483C81.8639 14.6872 81.9244 14.7935 81.9589 14.9467C82.0022 15.151 82.0344 15.295 82.0627 15.3528H81.8817C81.86 15.3078 81.8295 15.1832 81.7951 14.999C81.754 14.7948 81.679 14.7194 81.5213 14.7121H81.3575V15.3528H81.1826V13.8927Z" fill="black"/>
<path d="M81.5836 13.2921C80.9173 13.2921 80.376 13.8848 80.376 14.6143C80.376 15.3437 80.9173 15.937 81.5836 15.937C82.2499 15.937 82.7913 15.3437 82.7913 14.6143C82.7913 13.8848 82.2499 13.2921 81.5836 13.2921ZM81.5836 13.4964C82.1467 13.4964 82.6036 13.9955 82.6036 14.6143C82.6036 15.2325 82.1467 15.7334 81.5836 15.7334C81.0189 15.7334 80.5614 15.2325 80.5614 14.6143C80.5614 13.9955 81.0189 13.4964 81.5836 13.4964Z" fill="black"/>
</g>
<defs>
<clipPath id="clip0_169_25906">
<rect width="83" height="32" fill="white"/>
</clipPath>
</defs>
</svg>
